<svg width="36" height="33" viewBox="0 0 36 33" fill="none" xmlns="http://www.w3.org/2000/svg">
<path d="M17.9999 30.7464H7.14994C6.52772 30.7464 6.02217 30.5325 5.63328 30.1047C5.24439 29.6769 5.04994 29.1908 5.04994 28.6464V14.063L16.0166 4.37971C16.5611 3.91304 17.2222 3.67971 17.9999 3.67971C18.7777 3.67971 19.4388 3.91304 19.9833 4.37971L33.8666 16.6297C34.0222 16.7853 34.2166 16.8436 34.4499 16.8047C34.6833 16.7658 34.8777 16.6686 35.0333 16.513C35.1888 16.3575 35.2472 16.163 35.2083 15.9297C35.1694 15.6964 35.0722 15.5019 34.9166 15.3464L32.5833 13.363V5.07971C32.5833 3.91304 32.1555 2.90193 31.2999 2.04637C30.4444 1.19082 29.4333 0.782484 28.2666 0.821373C27.0999 0.860262 26.1083 1.28804 25.2916 2.10471C24.4749 2.92137 24.0277 3.91304 23.9499 5.07971V5.77971L21.0333 3.21304C20.1777 2.43526 19.1666 2.04637 17.9999 2.04637C16.8333 2.04637 15.8222 2.43526 14.9666 3.21304L1.08328 15.3464C0.849943 15.5019 0.733276 15.6964 0.733276 15.9297C0.733276 16.163 0.811054 16.3575 0.96661 16.513C1.12217 16.6686 1.31661 16.7658 1.54994 16.8047C1.78328 16.8436 1.97772 16.7853 2.13328 16.6297L3.41661 15.5797V28.6464C3.41661 29.6575 3.78605 30.5325 4.52494 31.2714C5.26383 32.0103 6.13883 32.3797 7.14994 32.3797H17.9999C18.2333 32.3797 18.4277 32.3019 18.5833 32.1464C18.7388 31.9908 18.8166 31.7964 18.8166 31.563C18.8166 31.3297 18.7388 31.1353 18.5833 30.9797C18.4277 30.8242 18.2333 30.7464 17.9999 30.7464ZM25.5833 5.07971C25.6611 4.30193 25.9527 3.66026 26.4583 3.15471C26.9638 2.64915 27.5861 2.41582 28.3249 2.45471C29.0638 2.4936 29.6861 2.76582 30.1916 3.27137C30.6972 3.77693 30.9499 4.37971 30.9499 5.07971V11.8464L25.5833 7.17971V5.07971ZM17.9999 9.04637C16.9111 9.04637 15.9777 9.43526 15.1999 10.213C14.4222 10.9908 14.0333 11.9242 14.0333 13.013C14.0333 14.1019 14.4222 15.0353 15.1999 15.813C15.9777 16.5908 16.9111 16.9797 17.9999 16.9797C19.0888 16.9797 20.0222 16.5908 20.7999 15.813C21.5777 15.0353 21.9666 14.1019 21.9666 13.013C21.9666 11.9242 21.5777 10.9908 20.7999 10.213C20.0222 9.43526 19.0888 9.04637 17.9999 9.04637ZM20.3333 13.013C20.3333 13.713 20.0999 14.2769 19.6333 14.7047C19.1666 15.1325 18.6222 15.3464 17.9999 15.3464C17.3777 15.3464 16.8333 15.1325 16.3666 14.7047C15.8999 14.2769 15.6666 13.7325 15.6666 13.0714C15.6666 12.4103 15.8999 11.8464 16.3666 11.3797C16.8333 10.913 17.3777 10.6797 17.9999 10.6797C18.6222 10.6797 19.1666 10.913 19.6333 11.3797C20.0999 11.8464 20.3333 12.3908 20.3333 13.013ZM35.0333 31.0964L32.2333 28.1797C32.9333 27.1686 33.2833 26.0408 33.2833 24.7964C33.2833 23.2408 32.7194 21.9186 31.5916 20.8297C30.4638 19.7408 29.1222 19.1964 27.5666 19.1964C26.0111 19.1964 24.6694 19.7408 23.5416 20.8297C22.4138 21.9186 21.8499 23.2603 21.8499 24.8547C21.8499 26.4492 22.4138 27.7908 23.5416 28.8797C24.6694 29.9686 26.0111 30.513 27.5666 30.513C28.8888 30.513 30.0555 30.1242 31.0666 29.3464L33.7499 32.1464C33.9055 32.3019 34.0999 32.3992 34.3333 32.438C34.5666 32.4769 34.7805 32.4186 34.9749 32.263C35.1694 32.1075 35.2666 31.913 35.2666 31.6797C35.2666 31.4464 35.1888 31.2519 35.0333 31.0964ZM27.5666 28.8797C26.4777 28.8797 25.5249 28.4908 24.7083 27.713C23.8916 26.9353 23.4833 25.9825 23.4833 24.8547C23.4833 23.7269 23.8916 22.7742 24.7083 21.9964C25.5249 21.2186 26.4972 20.8297 27.6249 20.8297C28.7527 20.8297 29.7055 21.2186 30.4833 21.9964C31.2611 22.7742 31.6499 23.7269 31.6499 24.8547C31.6499 25.9825 31.2611 26.9353 30.4833 27.713C29.7055 28.4908 28.7333 28.8797 27.5666 28.8797Z" fill="#1A1A1A"/>
</svg>
