<svg width="36" height="28" viewBox="0 0 36 28" fill="none" xmlns="http://www.w3.org/2000/svg">
<path d="M13.8 18.2432C13.8 18.4766 13.8778 18.6516 14.0333 18.7682C14.1889 18.8849 14.3444 18.9432 14.5 18.9432C14.6556 18.9432 14.8111 18.8849 14.9667 18.7682C15.1222 18.6516 15.2 18.496 15.2 18.3016C15.2 18.1071 15.1222 17.9516 14.9667 17.8349C14.8111 17.7182 14.6556 17.6599 14.5 17.6599C14.3444 17.6599 14.1889 17.7182 14.0333 17.8349C13.8778 17.9516 13.8 18.0877 13.8 18.2432ZM17.3 18.2432C17.3 18.4766 17.3778 18.6516 17.5333 18.7682C17.6889 18.8849 17.8444 18.9432 18 18.9432C18.1556 18.9432 18.3111 18.8849 18.4667 18.7682C18.6222 18.6516 18.7 18.496 18.7 18.3016C18.7 18.1071 18.6222 17.9516 18.4667 17.8349C18.3111 17.7182 18.1556 17.6599 18 17.6599C17.8444 17.6599 17.6889 17.7182 17.5333 17.8349C17.3778 17.9516 17.3 18.0877 17.3 18.2432ZM20.8 18.2432C20.8 18.4766 20.8778 18.6516 21.0333 18.7682C21.1889 18.8849 21.3444 18.9432 21.5 18.9432C21.6556 18.9432 21.8111 18.8849 21.9667 18.7682C22.1222 18.6516 22.2 18.496 22.2 18.3016C22.2 18.1071 22.1222 17.9516 21.9667 17.8349C21.8111 17.7182 21.6556 17.6599 21.5 17.6599C21.3444 17.6599 21.1889 17.7182 21.0333 17.8349C20.8778 17.9516 20.8 18.0877 20.8 18.2432ZM7.03333 18.9432C6.1 18.9432 5.24444 18.6905 4.46667 18.1849C3.68889 17.6793 3.125 16.9988 2.775 16.1432C2.425 15.2877 2.34722 14.3932 2.54167 13.4599C2.73611 12.5266 3.16389 11.7293 3.825 11.0682C4.48611 10.4071 5.26389 9.99879 6.15833 9.84323C7.05278 9.68767 7.92778 9.78489 8.78333 10.1349C9.63889 10.4849 10.3389 11.0488 10.8833 11.8266C11.4278 12.6043 11.7 13.4599 11.7 14.3932C11.7 15.6377 11.2528 16.7071 10.3583 17.6016C9.46389 18.496 8.35556 18.9432 7.03333 18.9432ZM7.03333 11.1266C6.41111 11.1266 5.82778 11.3016 5.28333 11.6516C4.73889 12.0016 4.33056 12.4877 4.05833 13.1099C3.78611 13.7321 3.72778 14.3738 3.88333 15.0349C4.03889 15.696 4.35 16.2405 4.81667 16.6682C5.28333 17.096 5.82778 17.3877 6.45 17.5432C7.07222 17.6988 7.69444 17.6405 8.31667 17.3682C8.93889 17.096 9.425 16.6877 9.775 16.1432C10.125 15.5988 10.3 15.0155 10.3 14.3932C10.3 13.4599 9.98889 12.6821 9.36667 12.0599C8.74444 11.4377 7.96667 11.1266 7.03333 11.1266ZM12.9833 27.2266H1.2C0.966667 27.2266 0.791667 27.1682 0.675 27.0516C0.558333 26.9349 0.5 26.7599 0.5 26.5266V24.1932C0.5 22.4043 1.14167 20.8682 2.425 19.5849C3.70833 18.3016 5.26389 17.6599 7.09167 17.6599C8.91944 17.6599 10.4556 18.3016 11.7 19.5849C12.9444 20.8682 13.6056 22.4043 13.6833 24.1932V26.5266C13.6833 26.7599 13.6056 26.9349 13.45 27.0516C13.2944 27.1682 13.1389 27.2266 12.9833 27.2266ZM1.9 25.8266H12.2833V24.1932C12.2833 22.7932 11.7778 21.5877 10.7667 20.5766C9.75556 19.5655 8.53056 19.0599 7.09167 19.0599C5.65278 19.0599 4.42778 19.5655 3.41667 20.5766C2.40556 21.5877 1.9 22.7932 1.9 24.1932V25.8266ZM28.9667 18.9432C28.0333 18.9432 27.1778 18.6905 26.4 18.1849C25.6222 17.6793 25.0583 16.9988 24.7083 16.1432C24.3583 15.2877 24.2611 14.3932 24.4167 13.4599C24.5722 12.5266 24.9806 11.7293 25.6417 11.0682C26.3028 10.4071 27.1 9.99879 28.0333 9.84323C28.9667 9.68767 29.8611 9.78489 30.7167 10.1349C31.5722 10.4849 32.2528 11.0488 32.7583 11.8266C33.2639 12.6043 33.5167 13.4599 33.5167 14.3932C33.5167 15.6377 33.0694 16.7071 32.175 17.6016C31.2806 18.496 30.2111 18.9432 28.9667 18.9432ZM28.9667 11.1266C28.2667 11.1266 27.6444 11.3016 27.1 11.6516C26.5556 12.0016 26.1667 12.4877 25.9333 13.1099C25.7 13.7321 25.6417 14.3738 25.7583 15.0349C25.875 15.696 26.1667 16.2405 26.6333 16.6682C27.1 17.096 27.6639 17.3877 28.325 17.5432C28.9861 17.6988 29.6083 17.6405 30.1917 17.3682C30.775 17.096 31.2417 16.6877 31.5917 16.1432C31.9417 15.5988 32.1167 15.0155 32.1167 14.3932C32.1167 13.4599 31.8056 12.6821 31.1833 12.0599C30.5611 11.4377 29.8222 11.1266 28.9667 11.1266ZM34.8 27.2266H23.0167C22.8611 27.2266 22.7056 27.1682 22.55 27.0516C22.3944 26.9349 22.3167 26.7599 22.3167 26.5266V24.1932C22.3944 22.4043 23.0556 20.8682 24.3 19.5849C25.5444 18.3016 27.0806 17.6599 28.9083 17.6599C30.7361 17.6599 32.2917 18.3016 33.575 19.5849C34.8583 20.8682 35.5 22.4043 35.5 24.1932V26.5266C35.5 26.7599 35.4417 26.9349 35.325 27.0516C35.2083 27.1682 35.0333 27.2266 34.8 27.2266ZM23.7167 25.8266H34.1V24.1932C34.1 22.7932 33.5944 21.5877 32.5833 20.5766C31.5722 19.5655 30.3472 19.0599 28.9083 19.0599C27.4694 19.0599 26.2444 19.5655 25.2333 20.5766C24.2222 21.5877 23.7167 22.7932 23.7167 24.1932V25.8266ZM14.85 14.1599C14.6944 14.1599 14.5389 14.1016 14.3833 13.9849C14.2278 13.8682 14.15 13.7321 14.15 13.5766V11.4766H13.5667C12.9444 11.4766 12.4 11.2627 11.9333 10.8349C11.4667 10.4071 11.2333 9.88212 11.2333 9.2599V2.6099C11.2333 1.98767 11.4667 1.46267 11.9333 1.03489C12.4 0.607119 12.9444 0.393229 13.5667 0.393229H22.3167C22.9389 0.393229 23.4639 0.607119 23.8917 1.03489C24.3194 1.46267 24.5333 1.98767 24.5333 2.6099V9.2599C24.5333 9.88212 24.3194 10.4071 23.8917 10.8349C23.4639 11.2627 22.9389 11.4766 22.3167 11.4766H17.8833L15.3167 14.0432C15.2389 14.1988 15.0833 14.2377 14.85 14.1599ZM13.5667 1.79323C13.3333 1.79323 13.1194 1.87101 12.925 2.02656C12.7306 2.18212 12.6333 2.37656 12.6333 2.6099V9.2599C12.6333 9.49323 12.7306 9.70712 12.925 9.90156C13.1194 10.096 13.3333 10.1932 13.5667 10.1932H14.85C15.0833 10.1932 15.2583 10.2516 15.375 10.3682C15.4917 10.4849 15.55 10.621 15.55 10.7766V11.8266L17.0667 10.3099C17.2222 10.2321 17.3778 10.1932 17.5333 10.1932H22.3167C22.55 10.1932 22.7639 10.096 22.9583 9.90156C23.1528 9.70712 23.25 9.49323 23.25 9.2599V2.6099C23.25 2.37656 23.1528 2.18212 22.9583 2.02656C22.7639 1.87101 22.55 1.79323 22.3167 1.79323H13.5667Z" fill="#1A1A1A"/>
</svg>
