<svg width="32" height="36" viewBox="0 0 32 36" fill="none" xmlns="http://www.w3.org/2000/svg">
<path d="M16.9332 21.7333C16.6999 21.7333 16.5054 21.6556 16.3499 21.5C15.3388 20.5667 14.8721 19.4389 14.9499 18.1167C14.9499 17.1056 15.1832 16.1722 15.6499 15.3167C15.7277 15.0833 15.8638 14.9472 16.0582 14.9083C16.2527 14.8694 16.4471 14.9083 16.6416 15.025C16.836 15.1417 16.9527 15.2972 16.9916 15.4917C17.0304 15.6861 17.011 15.8611 16.9332 16.0167C16.6221 16.4056 16.4277 16.95 16.3499 17.65C16.1943 18.7389 16.5443 19.6722 17.3999 20.45C17.6332 20.6833 17.6916 20.9556 17.5749 21.2667C17.4582 21.5778 17.2054 21.7333 16.8166 21.7333H16.9332ZM3.98322 24.8833C3.12766 24.8056 2.38877 24.4556 1.76655 23.8333C1.06655 23.1333 0.716553 22.2583 0.716553 21.2083C0.716553 20.1583 1.06655 19.2833 1.76655 18.5833L9.11655 11.1167C9.42766 10.8833 9.69989 10.6889 9.93322 10.5333C10.1666 10.3778 10.3804 10.3389 10.5749 10.4167C10.7693 10.4944 10.9054 10.6111 10.9832 10.7667C11.061 10.9222 11.0804 11.0972 11.0416 11.2917C11.0027 11.4861 10.886 11.6417 10.6916 11.7583C10.4971 11.875 10.3221 12.0111 10.1666 12.1667L2.81655 19.6333C2.34989 20.0222 2.11655 20.5472 2.11655 21.2083C2.11655 21.8694 2.34989 22.3944 2.81655 22.7833C3.04989 23.0944 3.361 23.2889 3.74989 23.3667L5.96655 21.15C6.12211 20.9944 6.31655 20.9167 6.54989 20.9167L7.59989 21.15L8.18322 20.5667V18.7C8.18322 18.5444 8.261 18.3889 8.41655 18.2333C8.57211 18.0778 8.72766 18 8.88322 18L10.8666 17.8833L13.4332 15.3167L13.6666 15.0833C13.7443 14.9278 13.8804 14.8306 14.0749 14.7917C14.2693 14.7528 14.4638 14.7917 14.6582 14.9083C14.8527 15.025 14.9693 15.1806 15.0082 15.375C15.0471 15.5694 14.9888 15.7444 14.8332 15.9L14.4832 16.3667L11.6832 19.1667C11.5277 19.3222 11.3721 19.4 11.2166 19.4H9.69989V20.9167C9.69989 21.15 9.62211 21.3056 9.46655 21.3833L8.41655 22.55C8.261 22.7056 8.06655 22.7444 7.83322 22.6667L6.78322 22.55L4.56655 24.7667C4.411 24.8444 4.21655 24.8833 3.98322 24.8833ZM17.1666 16.4833C15.7666 16.4833 14.4638 16.1722 13.2582 15.55C12.0527 14.9278 11.061 14.0528 10.2832 12.925C9.50544 11.7972 9.05822 10.5333 8.94155 9.13333C8.82489 7.73333 9.03878 6.41111 9.58322 5.16667C10.1277 3.92222 10.9443 2.89167 12.0332 2.075C13.1221 1.25833 14.3666 0.733334 15.7666 0.5C15.9999 0.422222 16.2138 0.5 16.4082 0.733334C16.6027 0.966667 16.661 1.21944 16.5832 1.49166C16.5054 1.76389 16.311 1.93889 15.9999 2.01667C14.2888 2.25 12.9082 3.06667 11.8582 4.46667C10.8082 5.86667 10.3999 7.44167 10.6332 9.19167C10.8666 10.9417 11.6443 12.3611 12.9666 13.45C14.2888 14.5389 15.8054 15.0444 17.5166 14.9667C19.2277 14.8889 20.686 14.2083 21.8916 12.925C23.0971 11.6417 23.6999 10.1444 23.6999 8.43333C23.6999 7.34444 23.4666 6.33333 22.9999 5.4C22.5332 4.46667 21.8332 3.68889 20.8999 3.06667C20.7443 2.91111 20.6666 2.73611 20.6666 2.54167C20.6666 2.34722 20.7249 2.17222 20.8416 2.01667C20.9582 1.86111 21.1138 1.76389 21.3082 1.725C21.5027 1.68611 21.6777 1.74445 21.8332 1.9C23.2332 2.91111 24.2249 4.23333 24.8082 5.86667C25.3916 7.5 25.411 9.15278 24.8666 10.825C24.3221 12.4972 23.3499 13.8583 21.9499 14.9083C20.5499 15.9583 18.9554 16.4833 17.1666 16.4833ZM18.7999 2.01667C18.7221 2.01667 18.6249 1.99722 18.5082 1.95833C18.3916 1.91945 18.2749 1.82222 18.1582 1.66667C18.0416 1.51111 18.0027 1.31667 18.0416 1.08333C18.0804 0.849998 18.236 0.674999 18.5082 0.558334C18.7804 0.441666 19.0332 0.480556 19.2666 0.674999C19.4999 0.869446 19.5777 1.08333 19.4999 1.31667C19.4221 1.55 19.3249 1.725 19.2082 1.84167C19.0916 1.95833 18.9166 2.01667 18.6832 2.01667H18.7999ZM18.2166 9.83333C17.361 9.83333 16.661 9.56111 16.1166 9.01667C15.5721 8.47222 15.2999 7.79167 15.2999 6.975C15.2999 6.15833 15.5721 5.45833 16.1166 4.875C16.661 4.29167 17.3416 4 18.1582 4C18.9749 4 19.6749 4.29167 20.2582 4.875C20.8416 5.45833 21.1332 6.15833 21.1332 6.975C21.1332 7.79167 20.8416 8.47222 20.2582 9.01667C19.6749 9.56111 18.9943 9.83333 18.2166 9.83333ZM18.2166 5.51667C17.8277 5.51667 17.4777 5.65278 17.1666 5.925C16.8554 6.19722 16.6999 6.52778 16.6999 6.91667C16.6999 7.30556 16.8554 7.65556 17.1666 7.96667C17.4777 8.27778 17.8277 8.43333 18.2166 8.43333C18.6054 8.43333 18.936 8.27778 19.2082 7.96667C19.4804 7.65556 19.6166 7.30556 19.6166 6.91667C19.6166 6.52778 19.4804 6.19722 19.2082 5.925C18.936 5.65278 18.6054 5.51667 18.2166 5.51667ZM27.6666 35.5C27.511 35.5 27.3554 35.4222 27.1999 35.2667C27.0443 35.1111 26.9666 34.9556 26.9666 34.8V26.5167V26.1667C26.8888 25.9333 26.9277 25.7194 27.0832 25.525C27.2388 25.3306 27.4332 25.2722 27.6666 25.35H28.4832L20.6666 18.9333L12.7332 25.2333H13.5499C13.861 25.2333 14.0749 25.3306 14.1916 25.525C14.3082 25.7194 14.3666 25.9333 14.3666 26.1667L14.2499 26.5167V34.8C14.2499 34.9556 14.1916 35.1111 14.0749 35.2667C13.9582 35.4222 13.7832 35.5 13.5499 35.5C13.3166 35.5 13.1416 35.4222 13.0249 35.2667C12.9082 35.1111 12.8499 34.9556 12.8499 34.8V26.75H10.6332C10.3221 26.75 10.1082 26.5944 9.99155 26.2833C9.87489 25.9722 9.93322 25.7 10.1666 25.4667L20.1999 17.4167C20.2777 17.3389 20.4138 17.3 20.6082 17.3C20.8027 17.3 20.9777 17.3389 21.1332 17.4167L31.0499 25.4667C31.2832 25.7 31.3416 25.9722 31.2249 26.2833C31.1082 26.5944 30.8943 26.75 30.5832 26.75H28.4832V34.8C28.4832 34.9556 28.4054 35.1111 28.2499 35.2667C28.0943 35.4222 27.8999 35.5 27.6666 35.5ZM20.6666 23.95C20.511 23.95 20.3554 23.8722 20.1999 23.7167C20.0443 23.5611 19.9666 23.3861 19.9666 23.1917C19.9666 22.9972 20.0443 22.8222 20.1999 22.6667C22.8443 20.3333 24.0499 17.9611 23.8166 15.55C23.5832 13.6056 22.5332 11.7 20.6666 9.83333C19.7332 8.9 18.7999 8.16111 17.8666 7.61667C17.5554 7.46111 17.3999 7.22778 17.3999 6.91667C17.3999 6.60555 17.536 6.39167 17.8082 6.275C18.0804 6.15833 18.3332 6.17778 18.5666 6.33333C19.6554 6.95555 20.7054 7.81111 21.7166 8.9C23.8166 11 24.9832 13.1389 25.2166 15.3167C25.5277 18.2722 24.1666 21.1111 21.1332 23.8333C21.0554 23.9111 20.8999 23.95 20.6666 23.95ZM22.5332 35.2667C22.3777 35.2667 22.2221 35.2083 22.0666 35.0917C21.911 34.975 21.8332 34.8 21.8332 34.5667V30.1333C21.8332 29.8222 21.736 29.5694 21.5416 29.375C21.3471 29.1806 21.0943 29.0833 20.7832 29.0833H19.9666C19.6554 29.0833 19.4027 29.1806 19.2082 29.375C19.0138 29.5694 18.9166 29.8222 18.9166 30.1333V34.5667C18.9166 34.8 18.8388 34.975 18.6832 35.0917C18.5277 35.2083 18.3527 35.2667 18.1582 35.2667C17.9638 35.2667 17.7888 35.2083 17.6332 35.0917C17.4777 34.975 17.3999 34.8 17.3999 34.5667V30.1333C17.3999 29.4333 17.6527 28.8306 18.1582 28.325C18.6638 27.8194 19.2666 27.5667 19.9666 27.5667H20.7832C21.4832 27.5667 22.086 27.8194 22.5916 28.325C23.0971 28.8306 23.311 29.4333 23.2332 30.1333V34.5667C23.311 34.8 23.2721 34.975 23.1166 35.0917C22.961 35.2083 22.7666 35.2667 22.5332 35.2667Z" fill="#1A1A1A"/>
</svg>
