<svg width="40" height="39" viewBox="0 0 40 39" fill="none" xmlns="http://www.w3.org/2000/svg">
<path d="M10.069 38.5C7.03248 38.5 4.66021 37.4524 2.95218 35.3571C1.24415 33.1667 0.390137 29.9286 0.390137 25.6429C0.390137 21.1667 1.38649 16.881 3.37919 12.7857C5.46678 8.69048 8.40839 4.64286 12.204 0.642864C12.2989 0.547621 12.4412 0.5 12.631 0.5C12.9156 0.5 13.1054 0.642858 13.2003 0.928574C13.3901 1.11905 13.4375 1.35714 13.3427 1.64286C11.0653 4.69048 9.49963 7.64286 8.64562 10.5C7.88649 13.2619 7.50693 16.3571 7.50693 19.7857C7.50693 22.3571 7.83905 24.3571 8.50328 25.7857C9.16751 27.2143 10.069 28.5 11.2076 29.6429L5.7989 30.6429C5.70401 29.0238 6.13102 27.7857 7.07992 26.9286C8.12372 26.0714 9.45219 25.6429 11.0653 25.6429C13.058 25.6429 14.5762 26.2143 15.62 27.3571C16.7587 28.5 17.3281 30.0714 17.3281 32.0714C17.3281 34.1667 16.6638 35.7857 15.3354 36.9286C14.1018 37.9762 12.3463 38.5 10.069 38.5ZM31.9886 38.5C28.9521 38.5 26.5799 37.4524 24.8719 35.3571C23.2587 33.1667 22.4521 29.9286 22.4521 25.6429C22.4521 21.0714 23.4485 16.7381 25.4412 12.6429C27.4339 8.54762 30.3755 4.54762 34.266 0.642864C34.3609 0.547621 34.5032 0.5 34.693 0.5C34.9777 0.5 35.1675 0.642858 35.2624 0.928574C35.4521 1.11905 35.4996 1.35714 35.4047 1.64286C33.1273 4.69048 31.5616 7.64286 30.7076 10.5C29.9485 13.2619 29.5689 16.3571 29.5689 19.7857C29.5689 22.3571 29.8536 24.4048 30.4229 25.9286C31.0872 27.3571 31.9886 28.5952 33.1273 29.6429L27.8609 30.6429C27.766 29.0238 28.193 27.7857 29.1419 26.9286C30.0908 26.0714 31.4193 25.6429 33.1273 25.6429C35.12 25.6429 36.6383 26.2143 37.6821 27.3571C38.8208 28.5 39.3901 30.0714 39.3901 32.0714C39.3901 34.1667 38.7259 35.7857 37.3974 36.9286C36.1638 37.9762 34.3609 38.5 31.9886 38.5Z" fill="#1A1A1A"/>
</svg>
